<mxfile host="app.diagrams.net" agent="Mozilla/5.0 (Windows NT 10.0; Win64; x64) AppleWebKit/537.36 (KHTML, like Gecko) Chrome/125.0.0.0 Safari/537.36" version="24.7.7">
  <diagram name="PÃ¡gina-1" id="gq1ESVZaRrUepFsSYZeg">
    <mxGraphModel dx="1393" dy="1000" grid="1" gridSize="10" guides="1" tooltips="1" connect="1" arrows="1" fold="1" page="0" pageScale="1" pageWidth="827" pageHeight="1169" math="0" shadow="0">
      <root>
        <mxCell id="0" />
        <mxCell id="1" parent="0" />
        <mxCell id="hOf3AfDxxuHpBkmNz-YH-98" style="edgeStyle=none;curved=1;rounded=0;orthogonalLoop=1;jettySize=auto;html=1;entryX=0;entryY=1;entryDx=0;entryDy=0;fontSize=12;startSize=8;endSize=8;" edge="1" parent="1" source="hOf3AfDxxuHpBkmNz-YH-1" target="hOf3AfDxxuHpBkmNz-YH-96">
          <mxGeometry relative="1" as="geometry" />
        </mxCell>
        <mxCell id="hOf3AfDxxuHpBkmNz-YH-99" style="edgeStyle=none;curved=1;rounded=0;orthogonalLoop=1;jettySize=auto;html=1;entryX=0;entryY=1;entryDx=0;entryDy=0;fontSize=12;startSize=8;endSize=8;" edge="1" parent="1" source="hOf3AfDxxuHpBkmNz-YH-1" target="hOf3AfDxxuHpBkmNz-YH-97">
          <mxGeometry relative="1" as="geometry" />
        </mxCell>
        <mxCell id="hOf3AfDxxuHpBkmNz-YH-1" value="Mesero" style="ellipse;whiteSpace=wrap;html=1;align=center;fontStyle=4;" vertex="1" parent="1">
          <mxGeometry x="362.5" y="1200" width="80" height="80" as="geometry" />
        </mxCell>
        <mxCell id="hOf3AfDxxuHpBkmNz-YH-88" style="edgeStyle=none;curved=1;rounded=0;orthogonalLoop=1;jettySize=auto;html=1;entryX=0;entryY=0.5;entryDx=0;entryDy=0;fontSize=12;startSize=8;endSize=8;" edge="1" parent="1" source="hOf3AfDxxuHpBkmNz-YH-2" target="hOf3AfDxxuHpBkmNz-YH-80">
          <mxGeometry relative="1" as="geometry" />
        </mxCell>
        <mxCell id="hOf3AfDxxuHpBkmNz-YH-89" style="edgeStyle=none;curved=1;rounded=0;orthogonalLoop=1;jettySize=auto;html=1;entryX=0;entryY=0.5;entryDx=0;entryDy=0;fontSize=12;startSize=8;endSize=8;" edge="1" parent="1" source="hOf3AfDxxuHpBkmNz-YH-2" target="hOf3AfDxxuHpBkmNz-YH-81">
          <mxGeometry relative="1" as="geometry" />
        </mxCell>
        <mxCell id="hOf3AfDxxuHpBkmNz-YH-90" style="edgeStyle=none;curved=1;rounded=0;orthogonalLoop=1;jettySize=auto;html=1;entryX=0;entryY=0.5;entryDx=0;entryDy=0;fontSize=12;startSize=8;endSize=8;" edge="1" parent="1" source="hOf3AfDxxuHpBkmNz-YH-2" target="hOf3AfDxxuHpBkmNz-YH-82">
          <mxGeometry relative="1" as="geometry" />
        </mxCell>
        <mxCell id="hOf3AfDxxuHpBkmNz-YH-91" style="edgeStyle=none;curved=1;rounded=0;orthogonalLoop=1;jettySize=auto;html=1;entryX=0;entryY=0.5;entryDx=0;entryDy=0;fontSize=12;startSize=8;endSize=8;" edge="1" parent="1" source="hOf3AfDxxuHpBkmNz-YH-2" target="hOf3AfDxxuHpBkmNz-YH-83">
          <mxGeometry relative="1" as="geometry" />
        </mxCell>
        <mxCell id="hOf3AfDxxuHpBkmNz-YH-92" style="edgeStyle=none;curved=1;rounded=0;orthogonalLoop=1;jettySize=auto;html=1;entryX=0;entryY=0.5;entryDx=0;entryDy=0;fontSize=12;startSize=8;endSize=8;" edge="1" parent="1" source="hOf3AfDxxuHpBkmNz-YH-2" target="hOf3AfDxxuHpBkmNz-YH-84">
          <mxGeometry relative="1" as="geometry" />
        </mxCell>
        <mxCell id="hOf3AfDxxuHpBkmNz-YH-93" style="edgeStyle=none;curved=1;rounded=0;orthogonalLoop=1;jettySize=auto;html=1;entryX=0;entryY=0.5;entryDx=0;entryDy=0;fontSize=12;startSize=8;endSize=8;" edge="1" parent="1" source="hOf3AfDxxuHpBkmNz-YH-2" target="hOf3AfDxxuHpBkmNz-YH-85">
          <mxGeometry relative="1" as="geometry" />
        </mxCell>
        <mxCell id="hOf3AfDxxuHpBkmNz-YH-94" style="edgeStyle=none;curved=1;rounded=0;orthogonalLoop=1;jettySize=auto;html=1;entryX=0;entryY=0;entryDx=0;entryDy=0;fontSize=12;startSize=8;endSize=8;" edge="1" parent="1" source="hOf3AfDxxuHpBkmNz-YH-2" target="hOf3AfDxxuHpBkmNz-YH-86">
          <mxGeometry relative="1" as="geometry" />
        </mxCell>
        <mxCell id="hOf3AfDxxuHpBkmNz-YH-95" style="edgeStyle=none;curved=1;rounded=0;orthogonalLoop=1;jettySize=auto;html=1;entryX=0;entryY=1;entryDx=0;entryDy=0;fontSize=12;startSize=8;endSize=8;" edge="1" parent="1" source="hOf3AfDxxuHpBkmNz-YH-2" target="hOf3AfDxxuHpBkmNz-YH-87">
          <mxGeometry relative="1" as="geometry" />
        </mxCell>
        <mxCell id="hOf3AfDxxuHpBkmNz-YH-2" value="Orden" style="ellipse;whiteSpace=wrap;html=1;align=center;" vertex="1" parent="1">
          <mxGeometry x="360" y="820" width="80" height="80" as="geometry" />
        </mxCell>
        <mxCell id="hOf3AfDxxuHpBkmNz-YH-145" style="edgeStyle=none;curved=1;rounded=0;orthogonalLoop=1;jettySize=auto;html=1;entryX=1;entryY=1;entryDx=0;entryDy=0;fontSize=12;startSize=8;endSize=8;" edge="1" parent="1" source="hOf3AfDxxuHpBkmNz-YH-6" target="hOf3AfDxxuHpBkmNz-YH-143">
          <mxGeometry relative="1" as="geometry" />
        </mxCell>
        <mxCell id="hOf3AfDxxuHpBkmNz-YH-146" style="edgeStyle=none;curved=1;rounded=0;orthogonalLoop=1;jettySize=auto;html=1;entryX=1;entryY=0.5;entryDx=0;entryDy=0;fontSize=12;startSize=8;endSize=8;" edge="1" parent="1" source="hOf3AfDxxuHpBkmNz-YH-6" target="hOf3AfDxxuHpBkmNz-YH-144">
          <mxGeometry relative="1" as="geometry" />
        </mxCell>
        <mxCell id="hOf3AfDxxuHpBkmNz-YH-6" value="Tipo_Cliente" style="ellipse;whiteSpace=wrap;html=1;align=center;fontStyle=4;" vertex="1" parent="1">
          <mxGeometry x="54" y="820" width="80" height="80" as="geometry" />
        </mxCell>
        <mxCell id="hOf3AfDxxuHpBkmNz-YH-77" style="edgeStyle=none;curved=1;rounded=0;orthogonalLoop=1;jettySize=auto;html=1;entryX=0;entryY=0.5;entryDx=0;entryDy=0;fontSize=12;startSize=8;endSize=8;" edge="1" parent="1" source="hOf3AfDxxuHpBkmNz-YH-8" target="hOf3AfDxxuHpBkmNz-YH-74">
          <mxGeometry relative="1" as="geometry" />
        </mxCell>
        <mxCell id="hOf3AfDxxuHpBkmNz-YH-78" style="edgeStyle=none;curved=1;rounded=0;orthogonalLoop=1;jettySize=auto;html=1;entryX=0;entryY=0.5;entryDx=0;entryDy=0;fontSize=12;startSize=8;endSize=8;" edge="1" parent="1" source="hOf3AfDxxuHpBkmNz-YH-8" target="hOf3AfDxxuHpBkmNz-YH-75">
          <mxGeometry relative="1" as="geometry" />
        </mxCell>
        <mxCell id="hOf3AfDxxuHpBkmNz-YH-79" style="edgeStyle=none;curved=1;rounded=0;orthogonalLoop=1;jettySize=auto;html=1;entryX=0;entryY=0.5;entryDx=0;entryDy=0;fontSize=12;startSize=8;endSize=8;" edge="1" parent="1" source="hOf3AfDxxuHpBkmNz-YH-8" target="hOf3AfDxxuHpBkmNz-YH-76">
          <mxGeometry relative="1" as="geometry" />
        </mxCell>
        <mxCell id="hOf3AfDxxuHpBkmNz-YH-8" value="Pedido" style="ellipse;whiteSpace=wrap;html=1;align=center;" vertex="1" parent="1">
          <mxGeometry x="540" y="467.5" width="80" height="90" as="geometry" />
        </mxCell>
        <mxCell id="hOf3AfDxxuHpBkmNz-YH-9" value="Ord_ID" style="text;html=1;align=center;verticalAlign=middle;whiteSpace=wrap;rounded=0;fontSize=16;" vertex="1" parent="1">
          <mxGeometry x="565.5" y="710" width="60" height="30" as="geometry" />
        </mxCell>
        <mxCell id="hOf3AfDxxuHpBkmNz-YH-11" value="Ord_Hora" style="text;html=1;align=center;verticalAlign=middle;whiteSpace=wrap;rounded=0;fontSize=16;" vertex="1" parent="1">
          <mxGeometry x="575" y="760" width="60" height="30" as="geometry" />
        </mxCell>
        <mxCell id="hOf3AfDxxuHpBkmNz-YH-12" value="Ord_Fecha" style="text;html=1;align=center;verticalAlign=middle;whiteSpace=wrap;rounded=0;fontSize=16;" vertex="1" parent="1">
          <mxGeometry x="580" y="810" width="60" height="30" as="geometry" />
        </mxCell>
        <mxCell id="hOf3AfDxxuHpBkmNz-YH-13" value="&lt;blockquote style=&quot;margin: 0 0 0 40px; border: none; padding: 0px;&quot;&gt;FK_Mes_ID&lt;/blockquote&gt;" style="text;html=1;align=center;verticalAlign=middle;whiteSpace=wrap;rounded=0;fontSize=16;" vertex="1" parent="1">
          <mxGeometry x="540" y="970" width="105" height="30" as="geometry" />
        </mxCell>
        <mxCell id="hOf3AfDxxuHpBkmNz-YH-14" value="Mes_ID" style="text;html=1;align=center;verticalAlign=middle;whiteSpace=wrap;rounded=0;fontSize=16;" vertex="1" parent="1">
          <mxGeometry x="529" y="1200" width="60" height="30" as="geometry" />
        </mxCell>
        <mxCell id="hOf3AfDxxuHpBkmNz-YH-15" value="Mes_Nombre" style="text;html=1;align=center;verticalAlign=middle;whiteSpace=wrap;rounded=0;fontSize=16;" vertex="1" parent="1">
          <mxGeometry x="550" y="1270" width="60" height="30" as="geometry" />
        </mxCell>
        <mxCell id="hOf3AfDxxuHpBkmNz-YH-16" value="TiC_ID" style="text;html=1;align=center;verticalAlign=middle;whiteSpace=wrap;rounded=0;fontSize=16;" vertex="1" parent="1">
          <mxGeometry x="-100" y="825" width="60" height="30" as="geometry" />
        </mxCell>
        <mxCell id="hOf3AfDxxuHpBkmNz-YH-17" value="Ord_Mesa" style="text;html=1;align=center;verticalAlign=middle;whiteSpace=wrap;rounded=0;fontSize=16;" vertex="1" parent="1">
          <mxGeometry x="578" y="850" width="60" height="30" as="geometry" />
        </mxCell>
        <mxCell id="hOf3AfDxxuHpBkmNz-YH-18" value="TiC_Tipo" style="text;html=1;align=center;verticalAlign=middle;whiteSpace=wrap;rounded=0;fontSize=16;" vertex="1" parent="1">
          <mxGeometry x="-97" y="875" width="60" height="30" as="geometry" />
        </mxCell>
        <mxCell id="hOf3AfDxxuHpBkmNz-YH-19" value="FK_TiC_ID" style="text;html=1;align=center;verticalAlign=middle;whiteSpace=wrap;rounded=0;fontSize=16;" vertex="1" parent="1">
          <mxGeometry x="574" y="1020" width="60" height="30" as="geometry" />
        </mxCell>
        <mxCell id="hOf3AfDxxuHpBkmNz-YH-23" value="Ord_Propina" style="text;html=1;align=center;verticalAlign=middle;whiteSpace=wrap;rounded=0;fontSize=16;" vertex="1" parent="1">
          <mxGeometry x="583" y="890" width="60" height="30" as="geometry" />
        </mxCell>
        <mxCell id="hOf3AfDxxuHpBkmNz-YH-27" value="Ord_Total" style="text;html=1;align=center;verticalAlign=middle;whiteSpace=wrap;rounded=0;fontSize=16;" vertex="1" parent="1">
          <mxGeometry x="573" y="930" width="60" height="30" as="geometry" />
        </mxCell>
        <mxCell id="hOf3AfDxxuHpBkmNz-YH-28" value="FK_Ord_ID" style="text;html=1;align=center;verticalAlign=middle;whiteSpace=wrap;rounded=0;fontSize=16;" vertex="1" parent="1">
          <mxGeometry x="735" y="445" width="60" height="30" as="geometry" />
        </mxCell>
        <mxCell id="hOf3AfDxxuHpBkmNz-YH-33" value="Ped_Total" style="text;html=1;align=center;verticalAlign=middle;whiteSpace=wrap;rounded=0;fontSize=16;" vertex="1" parent="1">
          <mxGeometry x="735" y="550" width="60" height="30" as="geometry" />
        </mxCell>
        <mxCell id="hOf3AfDxxuHpBkmNz-YH-68" style="edgeStyle=none;curved=1;rounded=0;orthogonalLoop=1;jettySize=auto;html=1;entryX=0;entryY=0.5;entryDx=0;entryDy=0;fontSize=12;startSize=8;endSize=8;" edge="1" parent="1" source="hOf3AfDxxuHpBkmNz-YH-36" target="hOf3AfDxxuHpBkmNz-YH-61">
          <mxGeometry relative="1" as="geometry" />
        </mxCell>
        <mxCell id="hOf3AfDxxuHpBkmNz-YH-69" style="edgeStyle=none;curved=1;rounded=0;orthogonalLoop=1;jettySize=auto;html=1;entryX=0;entryY=0.5;entryDx=0;entryDy=0;fontSize=12;startSize=8;endSize=8;" edge="1" parent="1" source="hOf3AfDxxuHpBkmNz-YH-36" target="hOf3AfDxxuHpBkmNz-YH-62">
          <mxGeometry relative="1" as="geometry" />
        </mxCell>
        <mxCell id="hOf3AfDxxuHpBkmNz-YH-70" style="edgeStyle=none;curved=1;rounded=0;orthogonalLoop=1;jettySize=auto;html=1;entryX=0;entryY=0.5;entryDx=0;entryDy=0;fontSize=12;startSize=8;endSize=8;" edge="1" parent="1" source="hOf3AfDxxuHpBkmNz-YH-36" target="hOf3AfDxxuHpBkmNz-YH-64">
          <mxGeometry relative="1" as="geometry" />
        </mxCell>
        <mxCell id="hOf3AfDxxuHpBkmNz-YH-71" style="edgeStyle=none;curved=1;rounded=0;orthogonalLoop=1;jettySize=auto;html=1;entryX=0;entryY=1;entryDx=0;entryDy=0;fontSize=12;startSize=8;endSize=8;" edge="1" parent="1" source="hOf3AfDxxuHpBkmNz-YH-36" target="hOf3AfDxxuHpBkmNz-YH-65">
          <mxGeometry relative="1" as="geometry" />
        </mxCell>
        <mxCell id="hOf3AfDxxuHpBkmNz-YH-72" style="edgeStyle=none;curved=1;rounded=0;orthogonalLoop=1;jettySize=auto;html=1;entryX=0;entryY=0.5;entryDx=0;entryDy=0;fontSize=12;startSize=8;endSize=8;" edge="1" parent="1" source="hOf3AfDxxuHpBkmNz-YH-36" target="hOf3AfDxxuHpBkmNz-YH-66">
          <mxGeometry relative="1" as="geometry" />
        </mxCell>
        <mxCell id="hOf3AfDxxuHpBkmNz-YH-73" style="edgeStyle=none;curved=1;rounded=0;orthogonalLoop=1;jettySize=auto;html=1;entryX=0;entryY=0.5;entryDx=0;entryDy=0;fontSize=12;startSize=8;endSize=8;" edge="1" parent="1" source="hOf3AfDxxuHpBkmNz-YH-36" target="hOf3AfDxxuHpBkmNz-YH-67">
          <mxGeometry relative="1" as="geometry" />
        </mxCell>
        <mxCell id="hOf3AfDxxuHpBkmNz-YH-36" value="Producto" style="ellipse;whiteSpace=wrap;html=1;aspect=fixed;" vertex="1" parent="1">
          <mxGeometry x="360" y="175" width="80" height="80" as="geometry" />
        </mxCell>
        <mxCell id="hOf3AfDxxuHpBkmNz-YH-37" value="Prod_ID" style="text;html=1;align=center;verticalAlign=middle;whiteSpace=wrap;rounded=0;fontSize=16;" vertex="1" parent="1">
          <mxGeometry x="607" y="90" width="60" height="30" as="geometry" />
        </mxCell>
        <mxCell id="hOf3AfDxxuHpBkmNz-YH-38" value="Prod_Nombre" style="text;html=1;align=center;verticalAlign=middle;whiteSpace=wrap;rounded=0;fontSize=16;" vertex="1" parent="1">
          <mxGeometry x="626" y="140" width="60" height="30" as="geometry" />
        </mxCell>
        <mxCell id="hOf3AfDxxuHpBkmNz-YH-39" value="FK_TiP_ID" style="text;html=1;align=center;verticalAlign=middle;whiteSpace=wrap;rounded=0;fontSize=16;" vertex="1" parent="1">
          <mxGeometry x="610" y="340" width="60" height="30" as="geometry" />
        </mxCell>
        <mxCell id="hOf3AfDxxuHpBkmNz-YH-40" value="Prod_Costo" style="text;html=1;align=center;verticalAlign=middle;whiteSpace=wrap;rounded=0;fontSize=16;" vertex="1" parent="1">
          <mxGeometry x="618" y="190" width="60" height="30" as="geometry" />
        </mxCell>
        <mxCell id="hOf3AfDxxuHpBkmNz-YH-41" value="Prod_Precio" style="text;html=1;align=center;verticalAlign=middle;whiteSpace=wrap;rounded=0;fontSize=16;" vertex="1" parent="1">
          <mxGeometry x="620" y="240" width="60" height="30" as="geometry" />
        </mxCell>
        <mxCell id="hOf3AfDxxuHpBkmNz-YH-42" value="FK_CaP_ID" style="text;html=1;align=center;verticalAlign=middle;whiteSpace=wrap;rounded=0;fontSize=16;" vertex="1" parent="1">
          <mxGeometry x="618" y="290" width="60" height="30" as="geometry" />
        </mxCell>
        <mxCell id="hOf3AfDxxuHpBkmNz-YH-141" style="edgeStyle=none;curved=1;rounded=0;orthogonalLoop=1;jettySize=auto;html=1;entryX=1;entryY=1;entryDx=0;entryDy=0;fontSize=12;startSize=8;endSize=8;" edge="1" parent="1" source="hOf3AfDxxuHpBkmNz-YH-43" target="hOf3AfDxxuHpBkmNz-YH-50">
          <mxGeometry relative="1" as="geometry" />
        </mxCell>
        <mxCell id="hOf3AfDxxuHpBkmNz-YH-142" style="edgeStyle=none;curved=1;rounded=0;orthogonalLoop=1;jettySize=auto;html=1;entryX=1;entryY=0.5;entryDx=0;entryDy=0;fontSize=12;startSize=8;endSize=8;" edge="1" parent="1" source="hOf3AfDxxuHpBkmNz-YH-43" target="hOf3AfDxxuHpBkmNz-YH-52">
          <mxGeometry relative="1" as="geometry" />
        </mxCell>
        <mxCell id="hOf3AfDxxuHpBkmNz-YH-43" value="Tipo_Producto" style="ellipse;whiteSpace=wrap;html=1;aspect=fixed;" vertex="1" parent="1">
          <mxGeometry y="180" width="80" height="80" as="geometry" />
        </mxCell>
        <mxCell id="hOf3AfDxxuHpBkmNz-YH-44" value="TiP_ID" style="text;html=1;align=center;verticalAlign=middle;whiteSpace=wrap;rounded=0;fontSize=16;" vertex="1" parent="1">
          <mxGeometry x="-204" y="170" width="60" height="30" as="geometry" />
        </mxCell>
        <mxCell id="hOf3AfDxxuHpBkmNz-YH-45" value="TiP_Nombre" style="text;html=1;align=center;verticalAlign=middle;whiteSpace=wrap;rounded=0;fontSize=16;" vertex="1" parent="1">
          <mxGeometry x="-224" y="225" width="60" height="30" as="geometry" />
        </mxCell>
        <mxCell id="hOf3AfDxxuHpBkmNz-YH-57" style="edgeStyle=none;curved=1;rounded=0;orthogonalLoop=1;jettySize=auto;html=1;fontSize=12;startSize=8;endSize=8;" edge="1" parent="1" source="hOf3AfDxxuHpBkmNz-YH-46">
          <mxGeometry relative="1" as="geometry">
            <mxPoint x="499" y="-300.0000000000001" as="targetPoint" />
          </mxGeometry>
        </mxCell>
        <mxCell id="hOf3AfDxxuHpBkmNz-YH-60" style="edgeStyle=none;curved=1;rounded=0;orthogonalLoop=1;jettySize=auto;html=1;entryX=0;entryY=0.5;entryDx=0;entryDy=0;fontSize=12;startSize=8;endSize=8;" edge="1" parent="1" source="hOf3AfDxxuHpBkmNz-YH-46" target="hOf3AfDxxuHpBkmNz-YH-59">
          <mxGeometry relative="1" as="geometry" />
        </mxCell>
        <mxCell id="hOf3AfDxxuHpBkmNz-YH-46" value="Categoria_Producto" style="ellipse;whiteSpace=wrap;html=1;aspect=fixed;" vertex="1" parent="1">
          <mxGeometry x="349" y="-300" width="90" height="90" as="geometry" />
        </mxCell>
        <mxCell id="hOf3AfDxxuHpBkmNz-YH-47" value="CaP_ID" style="text;html=1;align=center;verticalAlign=middle;whiteSpace=wrap;rounded=0;fontSize=16;" vertex="1" parent="1">
          <mxGeometry x="520" y="-320" width="60" height="30" as="geometry" />
        </mxCell>
        <mxCell id="hOf3AfDxxuHpBkmNz-YH-48" value="CaP_Nombre" style="text;html=1;align=center;verticalAlign=middle;whiteSpace=wrap;rounded=0;fontSize=16;" vertex="1" parent="1">
          <mxGeometry x="540" y="-260" width="60" height="30" as="geometry" />
        </mxCell>
        <mxCell id="hOf3AfDxxuHpBkmNz-YH-49" value="FK_Pro_ID" style="text;html=1;align=center;verticalAlign=middle;whiteSpace=wrap;rounded=0;fontSize=16;" vertex="1" parent="1">
          <mxGeometry x="735" y="500" width="60" height="30" as="geometry" />
        </mxCell>
        <mxCell id="hOf3AfDxxuHpBkmNz-YH-50" value="" style="ellipse;whiteSpace=wrap;html=1;aspect=fixed;" vertex="1" parent="1">
          <mxGeometry x="-150" y="175" width="20" height="20" as="geometry" />
        </mxCell>
        <mxCell id="hOf3AfDxxuHpBkmNz-YH-52" value="" style="ellipse;whiteSpace=wrap;html=1;aspect=fixed;" vertex="1" parent="1">
          <mxGeometry x="-150" y="230" width="20" height="20" as="geometry" />
        </mxCell>
        <mxCell id="hOf3AfDxxuHpBkmNz-YH-58" value="" style="ellipse;whiteSpace=wrap;html=1;aspect=fixed;" vertex="1" parent="1">
          <mxGeometry x="500" y="-315" width="20" height="20" as="geometry" />
        </mxCell>
        <mxCell id="hOf3AfDxxuHpBkmNz-YH-59" value="" style="ellipse;whiteSpace=wrap;html=1;aspect=fixed;" vertex="1" parent="1">
          <mxGeometry x="499" y="-255" width="20" height="20" as="geometry" />
        </mxCell>
        <mxCell id="hOf3AfDxxuHpBkmNz-YH-61" value="" style="ellipse;whiteSpace=wrap;html=1;aspect=fixed;" vertex="1" parent="1">
          <mxGeometry x="580" y="95" width="20" height="20" as="geometry" />
        </mxCell>
        <mxCell id="hOf3AfDxxuHpBkmNz-YH-62" value="" style="ellipse;whiteSpace=wrap;html=1;aspect=fixed;" vertex="1" parent="1">
          <mxGeometry x="580" y="140" width="20" height="20" as="geometry" />
        </mxCell>
        <mxCell id="hOf3AfDxxuHpBkmNz-YH-64" value="" style="ellipse;whiteSpace=wrap;html=1;aspect=fixed;" vertex="1" parent="1">
          <mxGeometry x="580" y="195" width="20" height="20" as="geometry" />
        </mxCell>
        <mxCell id="hOf3AfDxxuHpBkmNz-YH-65" value="" style="ellipse;whiteSpace=wrap;html=1;aspect=fixed;" vertex="1" parent="1">
          <mxGeometry x="580" y="250" width="20" height="20" as="geometry" />
        </mxCell>
        <mxCell id="hOf3AfDxxuHpBkmNz-YH-66" value="" style="ellipse;whiteSpace=wrap;html=1;aspect=fixed;" vertex="1" parent="1">
          <mxGeometry x="580" y="290" width="20" height="20" as="geometry" />
        </mxCell>
        <mxCell id="hOf3AfDxxuHpBkmNz-YH-67" value="" style="ellipse;whiteSpace=wrap;html=1;aspect=fixed;" vertex="1" parent="1">
          <mxGeometry x="580" y="345" width="20" height="20" as="geometry" />
        </mxCell>
        <mxCell id="hOf3AfDxxuHpBkmNz-YH-74" value="" style="ellipse;whiteSpace=wrap;html=1;aspect=fixed;" vertex="1" parent="1">
          <mxGeometry x="700" y="450" width="20" height="20" as="geometry" />
        </mxCell>
        <mxCell id="hOf3AfDxxuHpBkmNz-YH-75" value="" style="ellipse;whiteSpace=wrap;html=1;aspect=fixed;" vertex="1" parent="1">
          <mxGeometry x="700" y="505" width="20" height="20" as="geometry" />
        </mxCell>
        <mxCell id="hOf3AfDxxuHpBkmNz-YH-76" value="" style="ellipse;whiteSpace=wrap;html=1;aspect=fixed;" vertex="1" parent="1">
          <mxGeometry x="700" y="555" width="20" height="20" as="geometry" />
        </mxCell>
        <mxCell id="hOf3AfDxxuHpBkmNz-YH-80" value="" style="ellipse;whiteSpace=wrap;html=1;aspect=fixed;" vertex="1" parent="1">
          <mxGeometry x="545.5" y="715" width="20" height="20" as="geometry" />
        </mxCell>
        <mxCell id="hOf3AfDxxuHpBkmNz-YH-81" value="" style="ellipse;whiteSpace=wrap;html=1;aspect=fixed;" vertex="1" parent="1">
          <mxGeometry x="545.5" y="765" width="20" height="20" as="geometry" />
        </mxCell>
        <mxCell id="hOf3AfDxxuHpBkmNz-YH-82" value="" style="ellipse;whiteSpace=wrap;html=1;aspect=fixed;" vertex="1" parent="1">
          <mxGeometry x="545.5" y="815" width="20" height="20" as="geometry" />
        </mxCell>
        <mxCell id="hOf3AfDxxuHpBkmNz-YH-83" value="" style="ellipse;whiteSpace=wrap;html=1;aspect=fixed;" vertex="1" parent="1">
          <mxGeometry x="545.5" y="855" width="20" height="20" as="geometry" />
        </mxCell>
        <mxCell id="hOf3AfDxxuHpBkmNz-YH-84" value="" style="ellipse;whiteSpace=wrap;html=1;aspect=fixed;" vertex="1" parent="1">
          <mxGeometry x="545.5" y="895" width="20" height="20" as="geometry" />
        </mxCell>
        <mxCell id="hOf3AfDxxuHpBkmNz-YH-85" value="" style="ellipse;whiteSpace=wrap;html=1;aspect=fixed;" vertex="1" parent="1">
          <mxGeometry x="545.5" y="935" width="20" height="20" as="geometry" />
        </mxCell>
        <mxCell id="hOf3AfDxxuHpBkmNz-YH-86" value="" style="ellipse;whiteSpace=wrap;html=1;aspect=fixed;" vertex="1" parent="1">
          <mxGeometry x="545.5" y="975" width="20" height="20" as="geometry" />
        </mxCell>
        <mxCell id="hOf3AfDxxuHpBkmNz-YH-87" value="" style="ellipse;whiteSpace=wrap;html=1;aspect=fixed;" vertex="1" parent="1">
          <mxGeometry x="546" y="1025" width="20" height="20" as="geometry" />
        </mxCell>
        <mxCell id="hOf3AfDxxuHpBkmNz-YH-96" value="" style="ellipse;whiteSpace=wrap;html=1;aspect=fixed;" vertex="1" parent="1">
          <mxGeometry x="510" y="1205" width="20" height="20" as="geometry" />
        </mxCell>
        <mxCell id="hOf3AfDxxuHpBkmNz-YH-97" value="" style="ellipse;whiteSpace=wrap;html=1;aspect=fixed;" vertex="1" parent="1">
          <mxGeometry x="509" y="1270" width="20" height="20" as="geometry" />
        </mxCell>
        <mxCell id="hOf3AfDxxuHpBkmNz-YH-115" style="edgeStyle=none;curved=1;rounded=0;orthogonalLoop=1;jettySize=auto;html=1;entryX=0;entryY=0.5;entryDx=0;entryDy=0;fontSize=12;startSize=8;endSize=8;" edge="1" parent="1" source="hOf3AfDxxuHpBkmNz-YH-110" target="hOf3AfDxxuHpBkmNz-YH-8">
          <mxGeometry relative="1" as="geometry" />
        </mxCell>
        <mxCell id="hOf3AfDxxuHpBkmNz-YH-110" value="N:N" style="rhombus;whiteSpace=wrap;html=1;" vertex="1" parent="1">
          <mxGeometry x="360" y="470" width="80" height="80" as="geometry" />
        </mxCell>
        <mxCell id="hOf3AfDxxuHpBkmNz-YH-113" value="" style="endArrow=none;dashed=1;html=1;rounded=0;fontSize=12;startSize=8;endSize=8;curved=1;entryX=0.5;entryY=1;entryDx=0;entryDy=0;exitX=0.5;exitY=0;exitDx=0;exitDy=0;" edge="1" parent="1" source="hOf3AfDxxuHpBkmNz-YH-2" target="hOf3AfDxxuHpBkmNz-YH-110">
          <mxGeometry width="50" height="50" relative="1" as="geometry">
            <mxPoint x="380" y="670" as="sourcePoint" />
            <mxPoint x="430" y="620" as="targetPoint" />
          </mxGeometry>
        </mxCell>
        <mxCell id="hOf3AfDxxuHpBkmNz-YH-114" value="" style="endArrow=none;dashed=1;html=1;rounded=0;fontSize=12;startSize=8;endSize=8;curved=1;entryX=0.5;entryY=1;entryDx=0;entryDy=0;exitX=0.5;exitY=0;exitDx=0;exitDy=0;" edge="1" parent="1" source="hOf3AfDxxuHpBkmNz-YH-110" target="hOf3AfDxxuHpBkmNz-YH-36">
          <mxGeometry width="50" height="50" relative="1" as="geometry">
            <mxPoint x="350" y="330" as="sourcePoint" />
            <mxPoint x="400" y="280" as="targetPoint" />
          </mxGeometry>
        </mxCell>
        <mxCell id="hOf3AfDxxuHpBkmNz-YH-116" value="N" style="text;html=1;align=center;verticalAlign=middle;resizable=0;points=[];autosize=1;strokeColor=none;fillColor=none;fontSize=16;" vertex="1" parent="1">
          <mxGeometry x="359" y="260" width="40" height="30" as="geometry" />
        </mxCell>
        <mxCell id="hOf3AfDxxuHpBkmNz-YH-117" value="N" style="text;html=1;align=center;verticalAlign=middle;resizable=0;points=[];autosize=1;strokeColor=none;fillColor=none;fontSize=16;" vertex="1" parent="1">
          <mxGeometry x="400" y="260" width="40" height="30" as="geometry" />
        </mxCell>
        <mxCell id="hOf3AfDxxuHpBkmNz-YH-118" value="N" style="text;html=1;align=center;verticalAlign=middle;resizable=0;points=[];autosize=1;strokeColor=none;fillColor=none;fontSize=16;" vertex="1" parent="1">
          <mxGeometry x="364" y="790" width="40" height="30" as="geometry" />
        </mxCell>
        <mxCell id="hOf3AfDxxuHpBkmNz-YH-119" value="N" style="text;html=1;align=center;verticalAlign=middle;resizable=0;points=[];autosize=1;strokeColor=none;fillColor=none;fontSize=16;" vertex="1" parent="1">
          <mxGeometry x="399" y="790" width="40" height="30" as="geometry" />
        </mxCell>
        <mxCell id="hOf3AfDxxuHpBkmNz-YH-121" value="1:N" style="rhombus;whiteSpace=wrap;html=1;" vertex="1" parent="1">
          <mxGeometry x="360" y="-60" width="80" height="80" as="geometry" />
        </mxCell>
        <mxCell id="hOf3AfDxxuHpBkmNz-YH-122" value="" style="endArrow=none;dashed=1;html=1;rounded=0;fontSize=12;startSize=8;endSize=8;curved=1;exitX=0.5;exitY=0;exitDx=0;exitDy=0;entryX=0.5;entryY=1;entryDx=0;entryDy=0;" edge="1" parent="1" source="hOf3AfDxxuHpBkmNz-YH-36" target="hOf3AfDxxuHpBkmNz-YH-121">
          <mxGeometry width="50" height="50" relative="1" as="geometry">
            <mxPoint x="400" y="170" as="sourcePoint" />
            <mxPoint x="460" y="20" as="targetPoint" />
          </mxGeometry>
        </mxCell>
        <mxCell id="hOf3AfDxxuHpBkmNz-YH-123" value="" style="endArrow=none;dashed=1;html=1;rounded=0;fontSize=12;startSize=8;endSize=8;curved=1;entryX=0.5;entryY=0;entryDx=0;entryDy=0;exitX=0.5;exitY=1;exitDx=0;exitDy=0;" edge="1" parent="1" source="hOf3AfDxxuHpBkmNz-YH-46" target="hOf3AfDxxuHpBkmNz-YH-121">
          <mxGeometry width="50" height="50" relative="1" as="geometry">
            <mxPoint x="640" y="70" as="sourcePoint" />
            <mxPoint x="690" y="20" as="targetPoint" />
          </mxGeometry>
        </mxCell>
        <mxCell id="hOf3AfDxxuHpBkmNz-YH-125" value="1" style="text;html=1;align=center;verticalAlign=middle;resizable=0;points=[];autosize=1;strokeColor=none;fillColor=none;fontSize=16;" vertex="1" parent="1">
          <mxGeometry x="409" y="151" width="30" height="30" as="geometry" />
        </mxCell>
        <mxCell id="hOf3AfDxxuHpBkmNz-YH-126" value="1" style="text;html=1;align=center;verticalAlign=middle;resizable=0;points=[];autosize=1;strokeColor=none;fillColor=none;fontSize=16;" vertex="1" parent="1">
          <mxGeometry x="369" y="145" width="30" height="30" as="geometry" />
        </mxCell>
        <mxCell id="hOf3AfDxxuHpBkmNz-YH-127" value="1" style="text;html=1;align=center;verticalAlign=middle;resizable=0;points=[];autosize=1;strokeColor=none;fillColor=none;fontSize=16;" vertex="1" parent="1">
          <mxGeometry x="360" y="-210" width="30" height="30" as="geometry" />
        </mxCell>
        <mxCell id="hOf3AfDxxuHpBkmNz-YH-128" value="N" style="text;html=1;align=center;verticalAlign=middle;resizable=0;points=[];autosize=1;strokeColor=none;fillColor=none;fontSize=16;" vertex="1" parent="1">
          <mxGeometry x="399" y="-210" width="40" height="30" as="geometry" />
        </mxCell>
        <mxCell id="hOf3AfDxxuHpBkmNz-YH-129" value="1:N" style="rhombus;whiteSpace=wrap;html=1;" vertex="1" parent="1">
          <mxGeometry x="200" y="170" width="80" height="80" as="geometry" />
        </mxCell>
        <mxCell id="hOf3AfDxxuHpBkmNz-YH-130" value="" style="endArrow=none;dashed=1;html=1;rounded=0;fontSize=12;startSize=8;endSize=8;curved=1;exitX=1;exitY=0.5;exitDx=0;exitDy=0;entryX=0;entryY=0.5;entryDx=0;entryDy=0;" edge="1" parent="1" source="hOf3AfDxxuHpBkmNz-YH-129" target="hOf3AfDxxuHpBkmNz-YH-36">
          <mxGeometry width="50" height="50" relative="1" as="geometry">
            <mxPoint x="70" y="70" as="sourcePoint" />
            <mxPoint x="120" y="20" as="targetPoint" />
          </mxGeometry>
        </mxCell>
        <mxCell id="hOf3AfDxxuHpBkmNz-YH-131" value="" style="endArrow=none;dashed=1;html=1;rounded=0;fontSize=12;startSize=8;endSize=8;curved=1;exitX=1;exitY=0.5;exitDx=0;exitDy=0;entryX=0;entryY=0.5;entryDx=0;entryDy=0;" edge="1" parent="1" source="hOf3AfDxxuHpBkmNz-YH-43" target="hOf3AfDxxuHpBkmNz-YH-129">
          <mxGeometry width="50" height="50" relative="1" as="geometry">
            <mxPoint x="140" y="230" as="sourcePoint" />
            <mxPoint x="190" y="180" as="targetPoint" />
          </mxGeometry>
        </mxCell>
        <mxCell id="hOf3AfDxxuHpBkmNz-YH-133" value="1" style="text;html=1;align=center;verticalAlign=middle;resizable=0;points=[];autosize=1;strokeColor=none;fillColor=none;fontSize=16;" vertex="1" parent="1">
          <mxGeometry x="329" y="171" width="30" height="30" as="geometry" />
        </mxCell>
        <mxCell id="hOf3AfDxxuHpBkmNz-YH-134" value="1" style="text;html=1;align=center;verticalAlign=middle;resizable=0;points=[];autosize=1;strokeColor=none;fillColor=none;fontSize=16;" vertex="1" parent="1">
          <mxGeometry x="329" y="221" width="30" height="30" as="geometry" />
        </mxCell>
        <mxCell id="hOf3AfDxxuHpBkmNz-YH-135" value="1" style="text;html=1;align=center;verticalAlign=middle;resizable=0;points=[];autosize=1;strokeColor=none;fillColor=none;fontSize=16;" vertex="1" parent="1">
          <mxGeometry x="79" y="191" width="30" height="30" as="geometry" />
        </mxCell>
        <mxCell id="hOf3AfDxxuHpBkmNz-YH-136" value="N" style="text;html=1;align=center;verticalAlign=middle;resizable=0;points=[];autosize=1;strokeColor=none;fillColor=none;fontSize=16;" vertex="1" parent="1">
          <mxGeometry x="74" y="221" width="40" height="30" as="geometry" />
        </mxCell>
        <mxCell id="hOf3AfDxxuHpBkmNz-YH-143" value="" style="ellipse;whiteSpace=wrap;html=1;aspect=fixed;" vertex="1" parent="1">
          <mxGeometry x="-44" y="830" width="20" height="20" as="geometry" />
        </mxCell>
        <mxCell id="hOf3AfDxxuHpBkmNz-YH-144" value="" style="ellipse;whiteSpace=wrap;html=1;aspect=fixed;" vertex="1" parent="1">
          <mxGeometry x="-37" y="880" width="20" height="20" as="geometry" />
        </mxCell>
        <mxCell id="hOf3AfDxxuHpBkmNz-YH-147" value="1:N" style="rhombus;whiteSpace=wrap;html=1;" vertex="1" parent="1">
          <mxGeometry x="200" y="810" width="80" height="80" as="geometry" />
        </mxCell>
        <mxCell id="hOf3AfDxxuHpBkmNz-YH-148" value="" style="endArrow=none;dashed=1;html=1;rounded=0;fontSize=12;startSize=8;endSize=8;curved=1;exitX=1;exitY=0.5;exitDx=0;exitDy=0;entryX=0;entryY=0.5;entryDx=0;entryDy=0;" edge="1" parent="1" source="hOf3AfDxxuHpBkmNz-YH-147" target="hOf3AfDxxuHpBkmNz-YH-2">
          <mxGeometry width="50" height="50" relative="1" as="geometry">
            <mxPoint x="300" y="950" as="sourcePoint" />
            <mxPoint x="350" y="900" as="targetPoint" />
          </mxGeometry>
        </mxCell>
        <mxCell id="hOf3AfDxxuHpBkmNz-YH-149" value="" style="endArrow=none;dashed=1;html=1;rounded=0;fontSize=12;startSize=8;endSize=8;curved=1;exitX=0;exitY=0.5;exitDx=0;exitDy=0;entryX=1;entryY=0.5;entryDx=0;entryDy=0;" edge="1" parent="1" source="hOf3AfDxxuHpBkmNz-YH-147" target="hOf3AfDxxuHpBkmNz-YH-6">
          <mxGeometry width="50" height="50" relative="1" as="geometry">
            <mxPoint x="290" y="860" as="sourcePoint" />
            <mxPoint x="370" y="870" as="targetPoint" />
          </mxGeometry>
        </mxCell>
        <mxCell id="hOf3AfDxxuHpBkmNz-YH-150" value="1" style="text;html=1;align=center;verticalAlign=middle;resizable=0;points=[];autosize=1;strokeColor=none;fillColor=none;fontSize=16;" vertex="1" parent="1">
          <mxGeometry x="129" y="831" width="30" height="30" as="geometry" />
        </mxCell>
        <mxCell id="hOf3AfDxxuHpBkmNz-YH-151" value="N" style="text;html=1;align=center;verticalAlign=middle;resizable=0;points=[];autosize=1;strokeColor=none;fillColor=none;fontSize=16;" vertex="1" parent="1">
          <mxGeometry x="124" y="861" width="40" height="30" as="geometry" />
        </mxCell>
        <mxCell id="hOf3AfDxxuHpBkmNz-YH-152" value="1" style="text;html=1;align=center;verticalAlign=middle;resizable=0;points=[];autosize=1;strokeColor=none;fillColor=none;fontSize=16;" vertex="1" parent="1">
          <mxGeometry x="339" y="861" width="30" height="30" as="geometry" />
        </mxCell>
        <mxCell id="hOf3AfDxxuHpBkmNz-YH-153" value="1" style="text;html=1;align=center;verticalAlign=middle;resizable=0;points=[];autosize=1;strokeColor=none;fillColor=none;fontSize=16;" vertex="1" parent="1">
          <mxGeometry x="339" y="831" width="30" height="30" as="geometry" />
        </mxCell>
        <mxCell id="hOf3AfDxxuHpBkmNz-YH-154" value="1:N" style="rhombus;whiteSpace=wrap;html=1;" vertex="1" parent="1">
          <mxGeometry x="364" y="1020" width="80" height="80" as="geometry" />
        </mxCell>
        <mxCell id="hOf3AfDxxuHpBkmNz-YH-155" value="" style="endArrow=none;dashed=1;html=1;rounded=0;fontSize=12;startSize=8;endSize=8;curved=1;exitX=0.5;exitY=0;exitDx=0;exitDy=0;entryX=0.5;entryY=1;entryDx=0;entryDy=0;" edge="1" parent="1" source="hOf3AfDxxuHpBkmNz-YH-154" target="hOf3AfDxxuHpBkmNz-YH-2">
          <mxGeometry width="50" height="50" relative="1" as="geometry">
            <mxPoint x="350" y="990" as="sourcePoint" />
            <mxPoint x="400" y="940" as="targetPoint" />
          </mxGeometry>
        </mxCell>
        <mxCell id="hOf3AfDxxuHpBkmNz-YH-156" value="" style="endArrow=none;dashed=1;html=1;rounded=0;fontSize=12;startSize=8;endSize=8;curved=1;entryX=0.5;entryY=1;entryDx=0;entryDy=0;exitX=0.5;exitY=0;exitDx=0;exitDy=0;" edge="1" parent="1" source="hOf3AfDxxuHpBkmNz-YH-1" target="hOf3AfDxxuHpBkmNz-YH-154">
          <mxGeometry width="50" height="50" relative="1" as="geometry">
            <mxPoint x="350" y="1190" as="sourcePoint" />
            <mxPoint x="400" y="1140" as="targetPoint" />
          </mxGeometry>
        </mxCell>
        <mxCell id="hOf3AfDxxuHpBkmNz-YH-157" value="1" style="text;html=1;align=center;verticalAlign=middle;resizable=0;points=[];autosize=1;strokeColor=none;fillColor=none;fontSize=16;" vertex="1" parent="1">
          <mxGeometry x="379" y="901" width="30" height="30" as="geometry" />
        </mxCell>
        <mxCell id="hOf3AfDxxuHpBkmNz-YH-158" value="1" style="text;html=1;align=center;verticalAlign=middle;resizable=0;points=[];autosize=1;strokeColor=none;fillColor=none;fontSize=16;" vertex="1" parent="1">
          <mxGeometry x="399" y="901" width="30" height="30" as="geometry" />
        </mxCell>
        <mxCell id="hOf3AfDxxuHpBkmNz-YH-159" value="1" style="text;html=1;align=center;verticalAlign=middle;resizable=0;points=[];autosize=1;strokeColor=none;fillColor=none;fontSize=16;" vertex="1" parent="1">
          <mxGeometry x="379" y="1171" width="30" height="30" as="geometry" />
        </mxCell>
        <mxCell id="hOf3AfDxxuHpBkmNz-YH-161" value="N" style="text;html=1;align=center;verticalAlign=middle;resizable=0;points=[];autosize=1;strokeColor=none;fillColor=none;fontSize=16;" vertex="1" parent="1">
          <mxGeometry x="394" y="1171" width="40" height="30" as="geometry" />
        </mxCell>
      </root>
    </mxGraphModel>
  </diagram>
</mxfile>
